name analog
datacolumns 19
datarows 29
range 0.737 0.751
endheader
time	ground_force_vx	ground_force_vy	ground_force_vz	ground_force_px	ground_force_py	ground_force_pz	l_ground_force_vx	l_ground_force_vy	l_ground_force_vz	l_ground_force_px	l_ground_force_py	l_ground_force_pz	ground_torque_x	ground_torque_y	ground_torque_z	l_ground_torque_x	l_ground_torque_y	l_ground_torque_z
0.737	-0.0	-0.0	-0.0	0.4164249300956726	12.015642166137695	-760.41357421875	-0.0	-0.0	-0.0	-0.0	-0.0	-0.0	-0.0	-0.0	-0.0	-0.0	-0.0	-0.0
0.7375	-0.0	-0.0	-0.0	1.231933832168579	11.956331253051758	-758.96728515625	-0.0	-0.0	-0.0	-0.0	-0.0	-0.0	-0.0	-0.0	-0.0	-0.0	-0.0	-0.0
0.738	-0.0	-0.0	-0.0	2.0728530883789062	12.715536117553713	-762.3804931640625	-0.0	-0.0	-0.0	-0.0	-0.0	-0.0	-0.0	-0.0	-0.0	-0.0	-0.0	-0.0
0.7385	-0.0	-0.0	-0.0	2.103093385696411	12.364481925964355	-761.5911865234375	-0.0	-0.0	-0.0	-0.0	-0.0	-0.0	-0.0	-0.0	-0.0	-0.0	-0.0	-0.0
0.739	-0.0	-0.0	-0.0	3.036766290664673	12.84827709197998	-761.5914916992188	-0.0	-0.0	-0.0	-0.0	-0.0	-0.0	-0.0	-0.0	-0.0	-0.0	-0.0	-0.0
0.7395	-0.0	-0.0	-0.0	3.125794649124145	13.266712188720703	-761.1707153320312	-0.0	-0.0	-0.0	-0.0	-0.0	-0.0	-0.0	-0.0	-0.0	-0.0	-0.0	-0.0
0.74	-0.0	-0.0	-0.0	3.873689889907837	13.88391399383545	-761.5239868164062	-0.0	-0.0	-0.0	-0.0	-0.0	-0.0	-0.0	-0.0	-0.0	-0.0	-0.0	-0.0
0.7405	-0.0	-0.0	-0.0	4.549736022949219	14.3125	-761.5802001953125	-0.0	-0.0	-0.0	-0.0	-0.0	-0.0	-0.0	-0.0	-0.0	-0.0	-0.0	-0.0
0.741	-0.0	-0.0	-0.0	4.354051113128662	15.011293411254885	-760.8179931640625	-0.0	-0.0	-0.0	-0.0	-0.0	-0.0	-0.0	-0.0	-0.0	-0.0	-0.0	-0.0
0.7415	-0.0	-0.0	-0.0	5.033103942871094	15.545971870422363	-762.31005859375	-0.0	-0.0	-0.0	-0.0	-0.0	-0.0	-0.0	-0.0	-0.0	-0.0	-0.0	-0.0
0.742	-0.0	-0.0	-0.0	6.373692512512207	16.095428466796875	-760.043212890625	-0.0	-0.0	-0.0	-0.0	-0.0	-0.0	-0.0	-0.0	-0.0	-0.0	-0.0	-0.0
0.7425	-0.0	-0.0	-0.0	6.512367248535156	16.77387046813965	-760.6026611328125	-0.0	-0.0	-0.0	-0.0	-0.0	-0.0	-0.0	-0.0	-0.0	-0.0	-0.0	-0.0
0.743	-0.0	-0.0	-0.0	7.032397747039795	17.98912239074707	-761.4559326171875	-0.0	-0.0	-0.0	-0.0	-0.0	-0.0	-0.0	-0.0	-0.0	-0.0	-0.0	-0.0
0.7435	-0.0	-0.0	-0.0	6.710236549377441	18.341432571411133	-760.3353271484375	-0.0	-0.0	-0.0	-0.0	-0.0	-0.0	-0.0	-0.0	-0.0	-0.0	-0.0	-0.0
0.744	-0.0	-0.0	-0.0	7.1368408203125	18.876359939575195	-761.102783203125	-0.0	-0.0	-0.0	-0.0	-0.0	-0.0	-0.0	-0.0	-0.0	-0.0	-0.0	-0.0
0.7445	-0.0	-0.0	-0.0	6.6366047859191895	19.395431518554688	-761.310791015625	-0.0	-0.0	-0.0	-0.0	-0.0	-0.0	-0.0	-0.0	-0.0	-0.0	-0.0	-0.0
0.745	-0.0	-0.0	-0.0	6.0999369621276855	19.789892196655277	-759.3309936523438	-0.0	-0.0	-0.0	-0.0	-0.0	-0.0	-0.0	-0.0	-0.0	-0.0	-0.0	-0.0
0.7455	-0.0	-0.0	-0.0	5.2797136306762695	20.34058952331543	-762.6597900390625	-0.0	-0.0	-0.0	-0.0	-0.0	-0.0	-0.0	-0.0	-0.0	-0.0	-0.0	-0.0
0.746	-0.0	-0.0	-0.0	5.246907711029053	20.89282989501953	-763.0867309570312	-0.0	-0.0	-0.0	-0.0	-0.0	-0.0	-0.0	-0.0	-0.0	-0.0	-0.0	-0.0
0.7465	-0.0	-0.0	-0.0	4.175239562988281	20.9094295501709	-761.0254516601562	-0.0	-0.0	-0.0	-0.0	-0.0	-0.0	-0.0	-0.0	-0.0	-0.0	-0.0	-0.0
0.747	-0.0	-0.0	-0.0	3.943708896636963	21.33751678466797	-762.6614990234375	-0.0	-0.0	-0.0	-0.0	-0.0	-0.0	-0.0	-0.0	-0.0	-0.0	-0.0	-0.0
0.7475	-0.0	-0.0	-0.0	2.8901913166046143	22.051204681396484	-763.2943725585938	-0.0	-0.0	-0.0	-0.0	-0.0	-0.0	-0.0	-0.0	-0.0	-0.0	-0.0	-0.0
0.748	-0.0	-0.0	-0.0	2.836974859237671	22.283002853393555	-763.5750732421875	-0.0	-0.0	-0.0	-0.0	-0.0	-0.0	-0.0	-0.0	-0.0	-0.0	-0.0	-0.0
0.7485	-0.0	-0.0	-0.0	2.2836568355560303	21.997426986694336	-764.2100830078125	-0.0	-0.0	-0.0	-0.0	-0.0	-0.0	-0.0	-0.0	-0.0	-0.0	-0.0	-0.0
0.749	-0.0	-0.0	-0.0	2.2838425636291504	22.42518615722656	-765.7648315429688	-0.0	-0.0	-0.0	-0.0	-0.0	-0.0	-0.0	-0.0	-0.0	-0.0	-0.0	-0.0
0.7495	-0.0	-0.0	-0.0	1.9983693361282349	22.35401153564453	-765.5531616210938	-0.0	-0.0	-0.0	-0.0	-0.0	-0.0	-0.0	-0.0	-0.0	-0.0	-0.0	-0.0
0.75	-0.0	-0.0	-0.0	2.1765477657318115	22.586084365844727	-767.6005859375	-0.0	-0.0	-0.0	-0.0	-0.0	-0.0	-0.0	-0.0	-0.0	-0.0	-0.0	-0.0
0.7505000000000001	-0.0	-0.0	-0.0	1.8210868835449217	23.04892349243164	-767.2489013671875	-0.0	-0.0	-0.0	-0.0	-0.0	-0.0	-0.0	-0.0	-0.0	-0.0	-0.0	-0.0
0.751	-0.0	-0.0	-0.0	2.212963819503784	23.65480232238769	-769.9269409179688	-0.0	-0.0	-0.0	-0.0	-0.0	-0.0	-0.0	-0.0	-0.0	-0.0	-0.0	-0.0
